<svg xmlns="http://www.w3.org/2000/svg" viewBox="0 0 1600 1400" style="background: #f5f5f5;">
  <defs>
    <style>
      .wireframe-title { font: bold 24px sans-serif; fill: #333; }
      .section-title { font: bold 16px sans-serif; fill: #333; }
      .label { font: 12px sans-serif; fill: #666; }
      .box { fill: white; stroke: #ccc; stroke-width: 2; }
      .box-gray { fill: #e8e8e8; stroke: #ccc; stroke-width: 2; }
      .box-dark { fill: #d0d0d0; stroke: #999; stroke-width: 2; }
      .text { font: 11px sans-serif; fill: #666; }
      .icon-placeholder { fill: #b0b0b0; stroke: #999; stroke-width: 1; }
    </style>
  </defs>

  <!-- Page Title -->
  <text x="50" y="40" class="wireframe-title">Server Detail View - Wireframe</text>
  <text x="50" y="65" class="label">Desktop View (1440x900) | Status: Draft v1.0</text>

  <!-- Header -->
  <rect x="30" y="90" width="1540" height="70" class="box"/>
  <rect x="50" y="120" width="120" height="30" class="box-dark" rx="4"/>
  <text x="110" y="140" class="text" text-anchor="middle">SARK Logo</text>
  <rect x="200" y="120" width="400" height="30" class="box-gray" rx="4"/>
  <text x="220" y="140" class="text">🔍 Search...</text>
  <rect x="1400" y="120" width="150" height="30" class="box-gray" rx="4"/>
  <text x="1475" y="140" class="text" text-anchor="middle">Admin User ▾</text>

  <!-- Sidebar -->
  <rect x="30" y="180" width="240" height="1190" class="box"/>
  <text x="50" y="210" class="section-title">Navigation</text>
  <rect x="50" y="230" width="200" height="40" class="box-gray" rx="4"/>
  <text x="70" y="255" class="text">📊 Dashboard</text>
  <rect x="50" y="280" width="200" height="40" class="box-dark" rx="4"/>
  <text x="70" y="305" class="section-title">🖥️ Servers</text>

  <!-- Main Content -->
  <rect x="290" y="180" width="1280" height="1190" class="box"/>

  <!-- Breadcrumb -->
  <text x="310" y="210" class="label">Home > Servers > prod-mcp-server-01</text>

  <!-- Header with status -->
  <text x="310" y="250" class="wireframe-title">prod-mcp-server-01</text>
  <rect x="590" y="230" width="100" height="30" fill="#22c55e" opacity="0.2" rx="15"/>
  <text x="640" y="250" class="section-title" text-anchor="middle" fill="#22c55e">● Active</text>

  <text x="310" y="275" class="label">Server ID: srv_abc123xyz | Created: 2025-10-15 14:23:00</text>

  <!-- Action buttons -->
  <rect x="1250" y="225" width="100" height="35" class="box-gray" rx="4"/>
  <text x="1300" y="247" class="text" text-anchor="middle">Edit</text>

  <rect x="1360" y="225" width="100" height="35" class="box-gray" rx="4"/>
  <text x="1410" y="247" class="text" text-anchor="middle">Delete</text>

  <rect x="1470" y="225" width="80" height="35" class="box-gray" rx="4"/>
  <text x="1510" y="247" class="text" text-anchor="middle">⋮ More</text>

  <!-- Tabs -->
  <rect x="310" y="300" width="120" height="40" class="box-dark" rx="4"/>
  <text x="370" y="325" class="section-title" text-anchor="middle">Overview</text>

  <rect x="440" y="300" width="120" height="40" class="box-gray" rx="4"/>
  <text x="500" y="325" class="text" text-anchor="middle">Tools (147)</text>

  <rect x="570" y="300" width="120" height="40" class="box-gray" rx="4"/>
  <text x="630" y="325" class="text" text-anchor="middle">Health</text>

  <rect x="700" y="300" width="120" height="40" class="box-gray" rx="4"/>
  <text x="760" y="325" class="text" text-anchor="middle">Logs</text>

  <rect x="830" y="300" width="120" height="40" class="box-gray" rx="4"/>
  <text x="890" y="325" class="text" text-anchor="middle">Configuration</text>

  <!-- Main content sections -->
  <text x="310" y="380" class="section-title">Server Information</text>

  <!-- Info cards row 1 -->
  <rect x="310" y="395" width="400" height="120" class="box" rx="8"/>
  <text x="330" y="420" class="label">BASIC INFORMATION</text>
  <text x="330" y="445" class="text">Name: prod-mcp-server-01</text>
  <text x="330" y="465" class="text">Description: Production MCP server for platform team</text>
  <text x="330" y="485" class="text">Owner: john@example.com</text>
  <text x="330" y="505" class="text">Team: Platform Team</text>

  <rect x="730" y="395" width="400" height="120" class="box" rx="8"/>
  <text x="750" y="420" class="label">TRANSPORT CONFIGURATION</text>
  <text x="750" y="445" class="text">Type: HTTP</text>
  <text x="750" y="465" class="text">Endpoint: https://mcp.example.com:8443</text>
  <text x="750" y="485" class="text">MCP Version: 2025-06-18</text>
  <text x="750" y="505" class="text">TLS Enabled: Yes</text>

  <rect x="1150" y="395" width="400" height="120" class="box" rx="8"/>
  <text x="1170" y="420" class="label">SECURITY</text>
  <text x="1170" y="445" class="text">Sensitivity Level: Critical</text>
  <text x="1170" y="465" class="text">Requires Approval: No</text>
  <text x="1170" y="485" class="text">Signature: ✓ Valid</text>
  <text x="1170" y="505" class="text">Last Security Audit: 2025-11-20</text>

  <!-- Health metrics -->
  <text x="310" y="555" class="section-title">Health Metrics</text>

  <rect x="310" y="570" width="260" height="100" class="box" rx="8"/>
  <text x="330" y="595" class="label">UPTIME</text>
  <text x="330" y="630" class="wireframe-title">99.97%</text>
  <text x="330" y="655" class="text" fill="#22c55e">Last 30 days</text>

  <rect x="590" y="570" width="260" height="100" class="box" rx="8"/>
  <text x="610" y="595" class="label">AVG RESPONSE TIME</text>
  <text x="610" y="630" class="wireframe-title">127ms</text>
  <text x="610" y="655" class="text">p95: 245ms</text>

  <rect x="870" y="570" width="260" height="100" class="box" rx="8"/>
  <text x="890" y="595" class="label">SUCCESS RATE</text>
  <text x="890" y="630" class="wireframe-title">99.8%</text>
  <text x="890" y="655" class="text">Last 24 hours</text>

  <rect x="1150" y="570" width="400" height="100" class="box" rx="8"/>
  <text x="1170" y="595" class="label">LAST HEALTH CHECK</text>
  <text x="1170" y="630" class="text">Status: Passed ✓</text>
  <text x="1170" y="650" class="text">Time: 2 minutes ago</text>
  <text x="1170" y="670" class="text">Next check in: 58 seconds</text>

  <!-- Capabilities -->
  <text x="310" y="710" class="section-title">Capabilities</text>

  <rect x="310" y="725" width="1240" height="80" class="box" rx="8"/>

  <rect x="330" y="745" width="120" height="30" class="box-gray" rx="4"/>
  <text x="390" y="765" class="text" text-anchor="middle">tools</text>

  <rect x="460" y="745" width="120" height="30" class="box-gray" rx="4"/>
  <text x="520" y="765" class="text" text-anchor="middle">resources</text>

  <rect x="590" y="745" width="120" height="30" class="box-gray" rx="4"/>
  <text x="650" y="765" class="text" text-anchor="middle">prompts</text>

  <rect x="720" y="745" width="150" height="30" class="box-gray" rx="4"/>
  <text x="795" y="765" class="text" text-anchor="middle">streaming</text>

  <rect x="880" y="745" width="150" height="30" class="box-gray" rx="4"/>
  <text x="955" y="765" class="text" text-anchor="middle">experimental</text>

  <!-- Tool statistics -->
  <text x="310" y="845" class="section-title">Tool Statistics</text>

  <rect x="310" y="860" width="620" height="260" class="box" rx="8"/>
  <text x="330" y="885" class="label">TOOL INVOCATIONS (LAST 7 DAYS)</text>
  <rect x="330" y="900" width="580" height="200" class="box-gray" rx="4"/>
  <text x="620" y="1010" class="text" text-anchor="middle">[Bar chart showing daily tool invocations]</text>

  <!-- Top tools -->
  <rect x="950" y="860" width="600" height="260" class="box" rx="8"/>
  <text x="970" y="885" class="label">TOP 5 TOOLS BY USAGE</text>

  <rect x="970" y="905" width="560" height="40" class="box-gray" rx="4"/>
  <text x="990" y="930" class="text">1. search_files - 12,847 invocations</text>

  <rect x="970" y="955" width="560" height="40" class="box-gray" rx="4"/>
  <text x="990" y="980" class="text">2. read_file - 8,423 invocations</text>

  <rect x="970" y="1005" width="560" height="40" class="box-gray" rx="4"/>
  <text x="990" y="1030" class="text">3. write_file - 5,219 invocations</text>

  <rect x="970" y="1055" width="560" height="40" class="box-gray" rx="4"/>
  <text x="990" y="1080" class="text">4. execute_command - 3,104 invocations</text>

  <!-- Recent activity -->
  <text x="310" y="1160" class="section-title">Recent Activity</text>

  <rect x="310" y="1175" width="1240" height="180" class="box" rx="8"/>

  <rect x="330" y="1195" width="1200" height="50" class="box-gray" rx="4"/>
  <circle cx="350" cy="1220" r="8" fill="#22c55e"/>
  <text x="370" y="1215" class="text">Health check passed</text>
  <text x="370" y="1235" class="label">All systems operational</text>
  <text x="1500" y="1220" class="label" text-anchor="end">2 min ago</text>

  <rect x="330" y="1255" width="1200" height="50" class="box-gray" rx="4"/>
  <circle cx="350" cy="1280" r="8" fill="#3b82f6"/>
  <text x="370" y="1275" class="text">Tool invoked: search_files</text>
  <text x="370" y="1295" class="label">User: alice@example.com | Duration: 45ms</text>
  <text x="1500" y="1280" class="label" text-anchor="end">15 min ago</text>

  <rect x="330" y="1315" width="1200" height="30" class="box-dark" rx="4"/>
  <text x="930" y="1335" class="text" text-anchor="middle">View All Activity →</text>
</svg>
