<svg xmlns="http://www.w3.org/2000/svg" viewBox="0 0 1600 1100" style="background: #f5f5f5;">
  <defs>
    <style>
      .wireframe-title { font: bold 24px sans-serif; fill: #333; }
      .section-title { font: bold 16px sans-serif; fill: #333; }
      .label { font: 12px sans-serif; fill: #666; }
      .box { fill: white; stroke: #ccc; stroke-width: 2; }
      .box-gray { fill: #e8e8e8; stroke: #ccc; stroke-width: 2; }
      .box-dark { fill: #d0d0d0; stroke: #999; stroke-width: 2; }
      .text { font: 11px sans-serif; fill: #666; }
      .table-header { fill: #f0f0f0; stroke: #ccc; stroke-width: 1; }
      .table-row { fill: white; stroke: #e0e0e0; stroke-width: 1; }
    </style>
  </defs>

  <!-- Page Title -->
  <text x="50" y="40" class="wireframe-title">Users Management - Wireframe</text>
  <text x="50" y="65" class="label">Desktop View (1440x900) | Status: Draft v1.0</text>

  <!-- Header -->
  <rect x="30" y="90" width="1540" height="70" class="box"/>
  <rect x="50" y="120" width="120" height="30" class="box-dark" rx="4"/>
  <text x="110" y="140" class="text" text-anchor="middle">SARK Logo</text>

  <!-- Sidebar -->
  <rect x="30" y="180" width="240" height="890" class="box"/>
  <rect x="50" y="430" width="200" height="40" class="box-dark" rx="4"/>
  <text x="70" y="455" class="section-title">👥 Users</text>

  <!-- Main Content -->
  <rect x="290" y="180" width="1280" height="890" class="box"/>

  <!-- Breadcrumb -->
  <text x="310" y="210" class="label">Home > Users</text>

  <!-- Page Header -->
  <text x="310" y="245" class="wireframe-title">Users</text>
  <text x="310" y="270" class="label">Manage user accounts and permissions</text>

  <!-- Action Buttons -->
  <rect x="1280" y="220" width="120" height="35" class="box-dark" rx="4"/>
  <text x="1340" y="242" class="section-title" text-anchor="middle">+ Add User</text>

  <rect x="1410" y="220" width="140" height="35" class="box-gray" rx="4"/>
  <text x="1480" y="242" class="text" text-anchor="middle">Import from LDAP</text>

  <!-- Stats -->
  <rect x="310" y="290" width="290" height="80" class="box" rx="4"/>
  <text x="330" y="315" class="label">TOTAL USERS</text>
  <text x="330" y="350" class="wireframe-title">847</text>

  <rect x="620" y="290" width="290" height="80" class="box" rx="4"/>
  <text x="640" y="315" class="label">ACTIVE (30 DAYS)</text>
  <text x="640" y="350" class="section-title" fill="#22c55e">723</text>

  <rect x="930" y="290" width="290" height="80" class="box" rx="4"/>
  <text x="950" y="315" class="label">ADMINS</text>
  <text x="950" y="350" class="section-title">12</text>

  <rect x="1240" y="290" width="310" height="80" class="box" rx="4"/>
  <text x="1260" y="315" class="label">DEACTIVATED</text>
  <text x="1260" y="350" class="section-title" fill="#999">124</text>

  <!-- Filters -->
  <text x="310" y="410" class="section-title">Filters</text>

  <rect x="310" y="420" width="250" height="35" class="box-gray" rx="4"/>
  <text x="330" y="443" class="text">🔍 Search by name or email...</text>

  <rect x="580" y="420" width="160" height="35" class="box-gray" rx="4"/>
  <text x="600" y="443" class="text">Role: All ▾</text>

  <rect x="760" y="420" width="180" height="35" class="box-gray" rx="4"/>
  <text x="780" y="443" class="text">Team: All ▾</text>

  <rect x="960" y="420" width="180" height="35" class="box-gray" rx="4"/>
  <text x="980" y="443" class="text">Status: All ▾</text>

  <!-- Table -->
  <text x="310" y="490" class="label">Showing 50 of 847 users</text>

  <!-- Table Header -->
  <rect x="310" y="500" width="1240" height="40" class="table-header"/>
  <text x="330" y="525" class="section-title">Name</text>
  <text x="630" y="525" class="section-title">Email</text>
  <text x="930" y="525" class="section-title">Role</text>
  <text x="1070" y="525" class="section-title">Team</text>
  <text x="1250" y="525" class="section-title">Last Active</text>
  <text x="1480" y="525" class="section-title">Actions</text>

  <!-- Table Row 1 -->
  <rect x="310" y="540" width="1240" height="60" class="table-row"/>
  <circle cx="335" cy="570" r="18" fill="#3b82f6"/>
  <text x="335" y="575" fill="white" text-anchor="middle" class="section-title">JD</text>
  <text x="365" y="565" class="section-title">John Doe</text>
  <text x="365" y="585" class="label">Platform Team Lead</text>

  <text x="630" y="575" class="text">john.doe@example.com</text>

  <rect x="930" y="557" width="80" height="25" fill="#8b5cf6" opacity="0.2" rx="12"/>
  <text x="970" y="573" class="text" text-anchor="middle" fill="#8b5cf6">Admin</text>

  <text x="1070" y="575" class="text">Platform Team</text>

  <text x="1250" y="575" class="text">5 min ago</text>

  <rect x="1480" y="555" width="60" height="30" class="box-gray" rx="4"/>
  <text x="1510" y="575" class="text" text-anchor="middle">Edit</text>

  <!-- Table Row 2 -->
  <rect x="310" y="600" width="1240" height="60" class="table-row"/>
  <circle cx="335" cy="630" r="18" fill="#22c55e"/>
  <text x="335" y="635" fill="white" text-anchor="middle" class="section-title">AS</text>
  <text x="365" y="625" class="section-title">Alice Smith</text>
  <text x="365" y="645" class="label">Senior Engineer</text>

  <text x="630" y="635" class="text">alice.smith@example.com</text>

  <rect x="930" y="617" width="110" height="25" fill="#3b82f6" opacity="0.2" rx="12"/>
  <text x="985" y="633" class="text" text-anchor="middle" fill="#3b82f6">Power User</text>

  <text x="1070" y="635" class="text">Backend Team</text>

  <text x="1250" y="635" class="text">1 hour ago</text>

  <rect x="1480" y="615" width="60" height="30" class="box-gray" rx="4"/>
  <text x="1510" y="635" class="text" text-anchor="middle">Edit</text>

  <!-- Table Row 3 -->
  <rect x="310" y="660" width="1240" height="60" class="table-row"/>
  <circle cx="335" cy="690" r="18" fill="#f59e0b"/>
  <text x="335" y="695" fill="white" text-anchor="middle" class="section-title">BJ</text>
  <text x="365" y="685" class="section-title">Bob Johnson</text>
  <text x="365" y="705" class="label">DevOps Engineer</text>

  <text x="630" y="695" class="text">bob.johnson@example.com</text>

  <rect x="930" y="677" width="80" height="25" fill="#22c55e" opacity="0.2" rx="12"/>
  <text x="970" y="693" class="text" text-anchor="middle" fill="#22c55e">User</text>

  <text x="1070" y="695" class="text">DevOps Team</text>

  <text x="1250" y="695" class="text">2 days ago</text>

  <rect x="1480" y="675" width="60" height="30" class="box-gray" rx="4"/>
  <text x="1510" y="695" class="text" text-anchor="middle">Edit</text>

  <!-- Table Row 4 -->
  <rect x="310" y="720" width="1240" height="60" class="table-row"/>
  <circle cx="335" cy="750" r="18" fill="#ec4899"/>
  <text x="335" y="755" fill="white" text-anchor="middle" class="section-title">CW</text>
  <text x="365" y="745" class="section-title">Carol Williams</text>
  <text x="365" y="765" class="label">Security Analyst</text>

  <text x="630" y="755" class="text">carol.williams@example.com</text>

  <rect x="930" y="737" width="80" height="25" fill="#22c55e" opacity="0.2" rx="12"/>
  <text x="970" y="753" class="text" text-anchor="middle" fill="#22c55e">User</text>

  <text x="1070" y="755" class="text">Security Team</text>

  <text x="1250" y="755" class="text">Yesterday</text>

  <rect x="1480" y="735" width="60" height="30" class="box-gray" rx="4"/>
  <text x="1510" y="755" class="text" text-anchor="middle">Edit</text>

  <!-- Table Row 5 - Deactivated -->
  <rect x="310" y="780" width="1240" height="60" class="table-row" opacity="0.5"/>
  <circle cx="335" cy="810" r="18" fill="#999"/>
  <text x="335" y="815" fill="white" text-anchor="middle" class="section-title">DM</text>
  <text x="365" y="805" class="text">Dave Miller</text>
  <text x="365" y="825" class="label">Former Employee</text>

  <text x="630" y="815" class="text">dave.miller@example.com</text>

  <rect x="930" y="797" width="100" height="25" fill="#999" opacity="0.2" rx="12"/>
  <text x="980" y="813" class="text" text-anchor="middle" fill="#999">Deactivated</text>

  <text x="1070" y="815" class="text">—</text>

  <text x="1250" y="815" class="text">30 days ago</text>

  <rect x="1480" y="795" width="60" height="30" class="box-gray" rx="4"/>
  <text x="1510" y="815" class="text" text-anchor="middle">View</text>

  <!-- More rows indicated -->
  <text x="880" y="875" class="label" text-anchor="middle">... 45 more users ...</text>

  <!-- Pagination -->
  <rect x="310" y="1000" width="1240" height="50" class="box"/>
  <text x="330" y="1030" class="text">Rows per page: 50 ▾</text>
  <text x="900" y="1030" class="text">1-50 of 847</text>

  <rect x="1350" y="1010" width="40" height="30" class="box-gray" rx="4"/>
  <text x="1370" y="1030" class="text" text-anchor="middle">←</text>
  <rect x="1400" y="1010" width="40" height="30" class="box-dark" rx="4"/>
  <text x="1420" y="1030" class="text" text-anchor="middle">1</text>
  <rect x="1450" y="1010" width="40" height="30" class="box-gray" rx="4"/>
  <text x="1470" y="1030" class="text" text-anchor="middle">2</text>
  <rect x="1500" y="1010" width="40" height="30" class="box-gray" rx="4"/>
  <text x="1520" y="1030" class="text" text-anchor="middle">→</text>
</svg>
